<?xml version="1.0" encoding="UTF-8"?>
<svg id="_레이어_1" data-name="레이어_1" xmlns="http://www.w3.org/2000/svg" version="1.1" viewBox="0 0 24 24">
  <!-- Generator: Adobe Illustrator 30.0.0, SVG Export Plug-In . SVG Version: 2.1.1 Build 123)  -->
  <defs>
    <style>
      .st0 {
        fill: none;
        stroke: #000;
        stroke-linecap: round;
        stroke-linejoin: round;
        stroke-width: 2px;
      }
    </style>
  </defs>
  <path class="st0" d="M10.27,21c.18.3.43.56.73.73.3.18.65.27,1,.27s.7-.09,1-.27c.3-.18.56-.43.73-.73"/>
  <path class="st0" d="M3.26,15.33c-.13.14-.22.32-.25.51-.03.19,0,.39.07.56.08.18.21.33.37.43.16.11.35.16.55.16h16c.19,0,.38-.06.55-.16.16-.11.29-.26.37-.43.08-.18.1-.37.07-.56-.03-.19-.12-.37-.25-.51-1.33-1.37-2.74-2.83-2.74-7.33,0-1.59-.63-3.12-1.76-4.24-1.13-1.13-2.65-1.76-4.24-1.76s-3.12.63-4.24,1.76c-1.13,1.13-1.76,2.65-1.76,4.24,0,4.5-1.41,5.96-2.74,7.33Z"/>
</svg>

