<?xml version="1.0" encoding="UTF-8"?>
<svg id="_레이어_1" data-name="레이어_1" xmlns="http://www.w3.org/2000/svg" version="1.1" viewBox="0 0 24 24">
  <!-- Generator: Adobe Illustrator 30.0.0, SVG Export Plug-In . SVG Version: 2.1.1 Build 123)  -->
  <defs>
    <style>
      .st0 {
        fill: none;
        stroke: #000;
        stroke-linecap: round;
        stroke-linejoin: round;
        stroke-width: 2px;
      }
    </style>
  </defs>
  <path class="st0" d="M9.67,4.14c.12-1.29,1.26-2.23,2.55-2.11,1.12.11,2,.99,2.11,2.11.11,1.29,1.25,2.24,2.54,2.12.27-.02.54-.09.78-.21,1.18-.53,2.56-.01,3.1,1.16.46,1.02.14,2.22-.77,2.87-1.06.74-1.31,2.2-.57,3.26.16.22.35.42.57.57,1.05.75,1.29,2.21.54,3.26-.65.91-1.85,1.23-2.87.77-1.17-.55-2.56-.04-3.11,1.13-.11.25-.19.51-.21.78-.12,1.29-1.26,2.23-2.55,2.11-1.12-.11-2-.99-2.11-2.11-.11-1.29-1.25-2.24-2.54-2.13-.27.02-.54.1-.78.21-1.18.53-2.56.01-3.1-1.16-.46-1.02-.14-2.22.77-2.87,1.06-.74,1.31-2.2.57-3.26-.16-.22-.35-.42-.57-.57-1.05-.75-1.29-2.22-.54-3.27.65-.91,1.85-1.23,2.87-.77,1.17.55,2.56.04,3.11-1.13.11-.25.19-.51.21-.78"/>
  <circle class="st0" cx="12" cy="12" r="3"/>
</svg>

